# xmcd CD database file
#
# Track frame offsets:
#	150
#	15137
#	32284
#	50595
#	69017
#	86253
#	105575
#	122297
#	138473
#	155088
#	171995
#	188626
#	205159
#	219169
#	237343
#	253931
#	272910
#	287271
#	302357
#
# Disc length: 4276 seconds
#
# Revision: 2
# Processed by: cddbd v1.5.2PL0 Copyright (c) Steve Scherf et al.
# Submitted via: CDex 1.51
#
DISCID=ef10b213
DTITLE=Various Artist - Top Hits USA RC91
DYEAR=2005
DGENRE=Country
TTITLE0=Brooks and Dunn - Play Something Country
TTITLE1=Tim McGraw - Do You Want Fries with That
TTITLE2=Sara Evans - A Real Fine Place To Start
TTITLE3=Van Zant - Help Somebody
TTITLE4=Blue Country - That Summer Song
TTITLE5=Trisha Yearwood - Georgia Rain
TTITLE6=Craig Morgan - Redneck Yacht Club
TTITLE7=Shania Twain - I Ain't No Quitter
TTITLE8=Pat Green - Baby Doll
TTITLE9=Jamie O'Neal - Somebody's Hero
TTITLE10=Ryan Shupe - Dream Big
TTITLE11=Jason Aldean - Hicktown
TTITLE12=Jenkins - Get Away Car
TTITLE13=Montgomery Gentry - Something To Be Proud Of
TTITLE14=LeAnn Rimes - Probably Wouldn't Be This Way
TTITLE15=Josh Gracin - Stay With Me
TTITLE16=Julie Roberts - Wake Up Older
TTITLE17=Steve Holy - Go Home
TTITLE18=Trace Adkins - Arlington
EXTD=YEAR: 2005
EXTT0=
EXTT1=
EXTT2=
EXTT3=
EXTT4=
EXTT5=
EXTT6=
EXTT7=
EXTT8=
EXTT9=
EXTT10=
EXTT11=
EXTT12=
EXTT13=
EXTT14=
EXTT15=
EXTT16=
EXTT17=
EXTT18=
PLAYORDER=
